<svg xmlns="http://www.w3.org/2000/svg" viewBox="0 0 50 50"><defs><style>.cls-1{fill:#fff;}</style></defs><title>icon_camera</title><g id="icon_logout"><path class="cls-1" d="M6,11.57H8.31c1.52,0,1.52-3.83,3.1-3.83h8.22c1.52,0,1.52,3.83,3.1,3.83H37.3a1.51,1.51,0,0,1,1.52-1.52h1.52a1.51,1.51,0,0,1,1.52,1.52h2.31A3.83,3.83,0,0,1,48,15.4v23a3.83,3.83,0,0,1-3.83,3.83H5.83A3.83,3.83,0,0,1,2,38.43v-23a4.1,4.1,0,0,1,4-3.83ZM32.85,15.4A11.49,11.49,0,1,0,44.34,26.89,11.5,11.5,0,0,0,32.85,15.4ZM11.35,19.23H16a1.51,1.51,0,0,0,1.52-1.52v-.79A1.51,1.51,0,0,0,16,15.4H11.35a1.51,1.51,0,0,0-1.52,1.52v.79A1.51,1.51,0,0,0,11.35,19.23Z"/><path class="cls-1" d="M32.85,18.5a8.45,8.45,0,1,0,8.45,8.45,8.43,8.43,0,0,0-8.45-8.45Z"/></g></svg>